<svg width="242" height="146" viewBox="0 0 242 146" fill="none" xmlns="http://www.w3.org/2000/svg">
    <path d="M241.257 1.42875C241.494 1.28667 241.571 0.979542 241.429 0.742752C241.287 0.505962 240.98 0.429179 240.743 0.571254L241.257 1.42875ZM144.076 58.5713C143.839 58.7133 143.763 59.0205 143.905 59.2572C144.047 59.494 144.354 59.5708 144.591 59.4287L144.076 58.5713ZM97.9239 87.4287C98.1607 87.2867 98.2375 86.9795 98.0954 86.7428C97.9533 86.506 97.6462 86.4292 97.4094 86.5713L97.9239 87.4287ZM0.742752 144.571C0.505962 144.713 0.429179 145.02 0.571254 145.257C0.713328 145.494 1.02046 145.571 1.25725 145.429L0.742752 144.571ZM1.25725 0.571254C1.02046 0.429179 0.713328 0.505962 0.571254 0.742752C0.429179 0.979542 0.505962 1.28667 0.742752 1.42875L1.25725 0.571254ZM97.4094 59.4287C97.6462 59.5708 97.9533 59.494 98.0954 59.2572C98.2375 59.0205 98.1607 58.7133 97.9239 58.5713L97.4094 59.4287ZM144.591 86.5713C144.354 86.4292 144.047 86.506 143.905 86.7428C143.763 86.9795 143.839 87.2867 144.076 87.4287L144.591 86.5713ZM240.743 145.429C240.98 145.571 241.287 145.494 241.429 145.257C241.571 145.02 241.494 144.713 241.257 144.571L240.743 145.429ZM240.743 0.571254L144.076 58.5713L144.591 59.4287L241.257 1.42875L240.743 0.571254ZM97.4094 86.5713L0.742752 144.571L1.25725 145.429L97.9239 87.4287L97.4094 86.5713ZM0.742752 1.42875L97.4094 59.4287L97.9239 58.5713L1.25725 0.571254L0.742752 1.42875ZM144.076 87.4287L240.743 145.429L241.257 144.571L144.591 86.5713L144.076 87.4287Z" fill="black"/>
    <mask id="path-2-outside-1_426_298" maskUnits="userSpaceOnUse" x="113" y="73.5" width="16" height="8" fill="black">
        <rect fill="white" x="113" y="73.5" width="16" height="8"/>
        <path fill-rule="evenodd" clip-rule="evenodd" d="M122.571 78.4286L119 74.5L114 80H121H124H128L124.5 76.5L122.571 78.4286Z"/>
    </mask>
    <path d="M119 74.5L119.74 73.8273C119.55 73.6189 119.282 73.5 119 73.5C118.718 73.5 118.45 73.6189 118.26 73.8273L119 74.5ZM122.571 78.4286L121.831 79.1012C122.015 79.3036 122.274 79.4218 122.548 79.4283C122.821 79.4348 123.085 79.3291 123.279 79.1357L122.571 78.4286ZM114 80L113.26 79.3273C112.994 79.6202 112.925 80.0426 113.085 80.4046C113.246 80.7665 113.604 81 114 81V80ZM128 80V81C128.404 81 128.769 80.7564 128.924 80.3827C129.079 80.009 128.993 79.5789 128.707 79.2929L128 80ZM124.5 76.5L125.207 75.7929C124.817 75.4024 124.183 75.4024 123.793 75.7929L124.5 76.5ZM118.26 75.1727L121.831 79.1012L123.311 77.7559L119.74 73.8273L118.26 75.1727ZM114.74 80.6727L119.74 75.1727L118.26 73.8273L113.26 79.3273L114.74 80.6727ZM121 79H114V81H121V79ZM124 79H121V81H124V79ZM128 79H124V81H128V79ZM123.793 77.2071L127.293 80.7071L128.707 79.2929L125.207 75.7929L123.793 77.2071ZM123.279 79.1357L125.207 77.2071L123.793 75.7929L121.864 77.7215L123.279 79.1357Z" fill="black" mask="url(#path-2-outside-1_426_298)"/>
    <circle cx="122.5" cy="71" r="2" stroke="black"/>
</svg>
